PathFileType	4	(X/Y/Z)	s08c0401.trc
DataRate	CameraRate	NumFrames	NumMarkers	Units	OrigDataRate	OrigDataStartFrame	OrigNumFrames
200	200	4	50	mm	200	1000	2000
Frame#	Time	racr			lacr			c7			jug			rlel			rdr			llel			ldr			s2			lic			ric			lasi			rasi			rpsi			lpsi			rgt			lgt			rth1			rth2			rth3			rth4			rlfc			rmfc			rsh1			rsh2			rsh3			rsh4			rlmal			rmmal			rcal			rtoe			rmt5			lth1			lth2			lth4			lth3			llfc			lmfc			llmal			lmmal			lcal			lmt5			lsh1			lsh2			lsh3			lsh4			ltoe			SBIKE			LBIKE			RBIKE			
		X1	Y1	Z1	X2	Y2	Z2	X3	Y3	Z3	X4	Y4	Z4	X5	Y5	Z5	X6	Y6	Z6	X7	Y7	Z7	X8	Y8	Z8	X9	Y9	Z9	X10	Y10	Z10	X11	Y11	Z11	X12	Y12	Z12	X13	Y13	Z13	X14	Y14	Z14	X15	Y15	Z15	X16	Y16	Z16	X17	Y17	Z17	X18	Y18	Z18	X19	Y19	Z19	X20	Y20	Z20	X21	Y21	Z21	X22	Y22	Z22	X23	Y23	Z23	X24	Y24	Z24	X25	Y25	Z25	X26	Y26	Z26	X27	Y27	Z27	X28	Y28	Z28	X29	Y29	Z29	X30	Y30	Z30	X31	Y31	Z31	X32	Y32	Z32	X33	Y33	Z33	X34	Y34	Z34	X35	Y35	Z35	X36	Y36	Z36	X37	Y37	Z37	X38	Y38	Z38	X39	Y39	Z39	X40	Y40	Z40	X41	Y41	Z41	X42	Y42	Z42	X43	Y43	Z43	X44	Y44	Z44	X45	Y45	Z45	X46	Y46	Z46	X47	Y47	Z47	X48	Y48	Z48	X49	Y49	Z49	X50	Y50	Z50	
1000	5.0000	891.955737	1332.669054	-55.188627	827.220177	1382.991227	-381.319000	857.254873	1412.703920	-194.747578	801.557637	1266.024324	-220.526185	740.804827	1156.385807	124.438129	775.451893	939.440716	-48.502026	693.394857	1172.746154	-517.175654	785.219286	929.519738	-439.406200	281.542009	1260.380412	-256.618249	461.296048	1241.931716	-380.178519	414.950534	1237.591516	-67.291212	464.360898	1180.624809	-341.551830	438.680412	1188.121381	-100.377577	311.500113	1295.111801	-195.160255	326.737873	1298.131022	-291.078557	318.428834	1144.939808	-54.250456	393.444322	1121.624168	-424.439931	416.083464	999.004019	-32.683710	480.663680	938.307199	-26.770667	507.102926	855.689201	-32.961453	512.168562	957.889336	-29.950729	567.482280	748.551419	-42.922182	563.651238	740.280903	-155.729223	484.068282	643.791356	-23.583814	470.110108	556.501409	-44.290662	415.110617	491.677481	-56.615304	500.730284	549.134512	-69.123950	359.828175	385.797227	-73.536168	385.355805	404.512702	-158.732338	277.117816	370.706979	-123.180598	566.316471	310.071643	-102.406251	470.975192	293.388641	-41.422337	446.336362	994.309417	-423.964542	497.171092	923.946755	-413.530631	528.118410	936.759596	-399.469864	507.038420	835.484868	-412.277550	516.628092	706.950206	-393.414142	496.744986	686.345042	-285.685418	172.093274	465.472452	-410.925219	201.220762	450.891300	-326.789961	130.709117	511.422720	-367.049788	145.972540	295.893733	-421.162720	417.103331	625.850058	-419.495686	359.546167	564.056415	-405.751244	276.991419	532.209907	-411.507289	371.214312	548.137048	-368.401375	201.891425	230.784202	-351.324893	-137.604908	943.719458	-226.882844	17.964808	80.738218	-427.722915	17.911349	80.059171	-29.272948	
1001	5.0050	891.515371	1333.475426	-56.360455	826.696295	1383.220515	-383.596352	856.642852	1412.746492	-196.499006	801.343317	1265.665487	-221.899423	740.071620	1156.858281	123.193398	775.314666	939.404961	-48.159368	692.640101	1171.986959	-518.916290	785.061238	929.270475	-439.897937	280.629860	1258.600585	-256.205368	460.412872	1241.056361	-379.378545	415.042926	1234.497788	-67.277575	463.940478	1180.123779	-340.850631	438.644219	1184.569635	-99.102723	310.972378	1292.375720	-194.523120	326.054230	1296.617874	-290.449900	317.697270	1141.244908	-54.477652	394.224358	1121.201722	-424.378348	413.240433	993.519592	-33.481802	476.641491	931.343254	-27.993871	501.422952	848.371187	-34.381924	508.514259	950.490991	-30.602029	560.821178	741.121094	-44.314254	556.871632	732.621321	-156.803769	479.306316	634.614762	-24.251523	466.592090	547.228022	-44.691102	412.490699	481.509595	-56.668301	496.786206	540.275885	-70.170479	358.036339	374.964877	-72.920910	381.993021	393.773621	-158.594006	275.380325	359.849340	-122.558527	564.738047	300.088857	-101.612875	469.412830	282.330489	-41.507800	447.491747	993.931907	-424.208409	499.345607	924.526334	-412.883220	529.699320	937.850979	-398.061709	510.571202	836.285799	-411.968044	522.648797	709.375076	-391.514738	500.699317	687.900308	-284.020984	173.529832	475.924415	-410.745894	202.387107	460.989032	-326.481720	131.982372	521.863838	-367.106141	147.550669	306.420992	-421.361820	421.904381	631.234886	-417.833901	363.336831	570.778013	-405.070032	279.913495	540.453360	-410.744559	374.534277	553.874038	-367.435417	203.594442	241.359636	-351.402135	-137.830790	943.546644	-227.284620	17.886007	80.500596	-427.700175	17.885491	80.029158	-29.290195	
1002	5.0100	891.031808	1334.488078	-57.881402	826.659342	1383.012464	-384.966779	856.125754	1412.886423	-198.348073	801.257113	1265.273825	-223.398880	739.334445	1157.702685	121.889148	775.201237	939.487045	-47.824273	691.537998	1171.477544	-520.747274	784.767066	929.682702	-440.384648	279.952283	1256.964619	-255.242383	459.189968	1240.157745	-378.457524	415.171791	1231.473922	-67.248713	463.359545	1179.602003	-340.125563	438.823087	1180.921028	-97.902952	310.561199	1289.823133	-193.872297	325.113483	1295.246940	-289.450453	317.439412	1137.307032	-54.467012	394.441303	1120.683163	-424.193461	410.514674	987.770862	-34.056095	473.002056	924.063982	-29.305740	495.633187	840.722612	-36.224474	504.600263	942.698783	-29.933527	553.805706	733.679236	-45.960822	547.493628	724.842945	-159.246465	474.330926	625.478691	-25.429010	462.714874	537.637605	-46.077089	409.586655	471.184938	-56.941475	492.605991	531.345367	-71.841376	355.684304	364.346743	-72.434613	379.740449	383.678946	-157.749592	273.082775	349.241321	-121.946452	562.432095	287.955642	-103.141940	467.229112	271.456664	-41.645318	448.437636	993.461240	-424.042817	501.302012	925.176244	-411.730364	531.082543	939.070562	-396.170576	514.282081	837.179335	-410.991387	528.533018	712.203557	-389.686187	507.378901	690.896609	-282.154427	175.396073	486.457185	-410.677005	203.808973	471.135353	-326.511693	133.504019	532.283698	-367.268313	149.792604	316.925044	-421.507194	427.002792	636.665975	-416.357785	367.183953	577.608679	-404.388921	283.214088	548.790531	-410.083336	378.174724	559.395278	-365.866410	206.038355	252.180860	-351.529917	-137.991859	943.409448	-227.740951	17.848688	80.371445	-427.729933	17.825480	79.977926	-29.337967	
1003	5.0150	890.645909	1335.670438	-59.492234	826.602475	1382.738397	-387.272935	855.651820	1413.093871	-200.323345	801.243418	1264.854899	-224.983494	738.427416	1158.911890	120.439433	775.179618	939.725351	-47.590334	690.011683	1171.172623	-522.656938	784.668852	929.845403	-440.710604	280.012777	1255.677763	-253.481477	457.650900	1239.221464	-377.589274	415.696952	1228.273338	-67.007764	462.497072	1179.132014	-339.224156	439.100440	1177.312234	-96.724599	310.073854	1287.166093	-192.766189	324.141654	1293.934264	-288.066070	317.511368	1133.183113	-54.237117	394.124719	1120.080568	-423.747182	407.679553	981.511397	-34.809206	468.212109	916.592348	-29.932547	489.633662	832.761215	-38.363950	500.902231	934.731560	-30.633980	546.000996	725.372388	-48.279005	539.535413	716.934239	-160.892177	468.852420	616.457726	-26.786700	458.529030	528.643559	-47.671891	406.093178	461.144228	-57.462461	488.033619	522.687689	-73.823802	352.742500	353.937459	-72.079752	376.726108	373.468300	-157.415127	270.145275	338.944363	-121.563557	559.526573	277.189758	-103.409665	464.375172	260.804723	-41.743221	449.250599	993.203470	-423.465664	503.286735	926.097983	-410.029484	532.509303	940.520384	-393.953740	518.313562	838.426953	-409.167745	534.484664	715.197578	-387.700040	512.782631	693.437621	-280.533668	177.861868	497.188267	-411.032811	205.823731	481.323456	-326.138965	135.558420	542.710439	-367.640435	152.720800	327.416194	-421.568008	432.018494	642.355071	-415.112157	371.128447	583.909269	-403.156558	286.679451	557.055735	-409.451658	381.825062	565.353617	-364.613400	209.266293	262.870303	-351.598866	-138.071081	943.346169	-228.168007	17.824754	80.258011	-427.763892	17.774140	79.971037	-29.382836	
